<?xml version="1.0" standalone="no"?>
<!DOCTYPE svg PUBLIC "-//W3C//DTD SVG 20010904//EN"
 "http://www.w3.org/TR/2001/REC-SVG-20010904/DTD/svg10.dtd">
<svg version="1.0" xmlns="http://www.w3.org/2000/svg"
 width="703.000000pt" height="355.000000pt" viewBox="0 0 703.000000 355.000000"
 preserveAspectRatio="xMidYMid meet">

<g transform="translate(0.000000,355.000000) scale(0.100000,-0.100000)"
fill="#000000" stroke="none">
<path d="M3305 3208 c-9 -35 -23 -110 -30 -168 -19 -151 -34 -239 -50 -288 -8
-23 -20 -75 -25 -115 -12 -82 -17 -104 -105 -466 -35 -145 -68 -268 -72 -272
-4 -3 -29 -10 -54 -13 -35 -5 -50 -3 -61 8 -8 8 -30 21 -49 29 -55 24 -198
144 -216 181 -15 32 -15 36 1 52 11 11 16 26 13 43 -3 14 1 41 9 60 18 44 18
85 -1 101 -9 7 -15 29 -15 54 0 23 -9 68 -20 99 -20 55 -20 59 -3 82 11 15 28
24 45 25 24 0 32 8 58 68 19 41 30 80 28 99 -1 18 3 38 10 45 23 23 13 62 -26
104 -61 68 -158 83 -238 39 -25 -14 -56 -25 -69 -25 -13 0 -26 -4 -29 -9 -3
-4 7 -6 22 -5 15 2 20 1 12 -2 -24 -10 -61 -47 -76 -76 -13 -24 -12 -31 6 -60
11 -18 20 -40 19 -48 0 -10 -2 -11 -6 -2 -2 7 -23 12 -46 12 -62 1 -117 55
-96 93 10 17 8 18 -23 21 -7 1 -22 11 -35 24 -18 18 -33 22 -83 22 -33 0 -60
4 -60 8 0 4 -37 8 -81 9 -72 2 -87 -1 -128 -24 -25 -15 -51 -34 -58 -43 -6 -8
-18 -23 -25 -33 -8 -11 -36 -23 -64 -28 -27 -5 -55 -17 -62 -26 -7 -10 -28
-18 -48 -20 -43 -2 -90 -29 -118 -66 -31 -42 -30 -143 2 -187 29 -38 26 -50
-18 -64 -45 -14 -80 -67 -80 -118 0 -32 7 -47 33 -73 37 -37 103 -59 151 -52
31 5 86 -16 86 -32 0 -4 -60 -13 -132 -20 -172 -15 -204 -25 -246 -69 -43 -47
-69 -95 -53 -100 6 -2 18 -18 26 -35 12 -26 36 -42 123 -84 59 -28 134 -59
167 -69 75 -22 77 -24 80 -71 2 -21 8 -58 15 -82 10 -37 14 -42 25 -30 12 12
11 23 -6 73 -28 81 -23 88 42 66 l53 -17 -2 -44 c-2 -26 3 -52 11 -63 13 -17
14 -14 20 34 7 58 10 65 26 55 15 -9 14 -98 -1 -113 -9 -9 -9 -12 0 -12 17 0
32 34 32 74 l0 36 69 0 c64 0 69 -2 75 -24 3 -13 -1 -60 -10 -103 -34 -166
-43 -240 -37 -290 5 -46 3 -56 -19 -81 -30 -36 -41 -63 -66 -177 -31 -135 -38
-246 -18 -286 10 -19 12 -37 7 -48 -17 -33 -21 -112 -7 -139 13 -26 29 -105
30 -147 1 -30 93 -34 147 -6 22 12 59 21 82 21 45 0 87 22 87 46 0 25 -36 52
-80 59 l-42 7 7 44 c5 36 2 49 -14 70 -12 15 -21 38 -21 51 0 35 35 97 62 110
37 19 137 35 172 29 51 -10 72 -80 42 -142 -11 -22 -14 -64 -12 -164 l2 -135
72 -3 c43 -2 81 2 94 9 13 7 61 13 108 14 58 1 97 7 125 19 22 10 55 18 73 17
17 -1 32 2 32 7 0 40 38 287 71 457 68 356 79 404 120 523 35 104 46 151 64
265 3 20 12 37 19 37 7 0 18 12 25 28 8 15 17 35 22 44 6 13 3 23 -12 37 l-21
19 86 344 c47 188 86 354 86 367 0 14 7 33 17 43 9 11 11 18 5 18 -18 0 -14
47 13 145 13 50 29 144 35 210 6 65 17 147 25 182 17 74 18 93 6 93 -5 0 -16
-28 -26 -62z m-870 -523 l30 -25 -40 6 c-48 8 -47 7 -39 28 8 21 14 20 49 -9z
m109 -688 c43 -35 126 -87 211 -131 28 -14 57 -30 65 -35 8 -5 49 -24 90 -42
41 -17 76 -33 77 -34 10 -7 -34 -204 -67 -298 -28 -82 -61 -223 -110 -470 -38
-193 -72 -377 -75 -407 -10 -81 -11 -84 -36 -59 -18 18 -30 21 -68 16 -32 -3
-58 1 -86 13 -22 10 -37 19 -32 19 4 1 0 12 -9 26 -15 23 -15 25 0 31 20 8 21
34 1 34 -11 0 -15 11 -15 35 0 22 6 38 15 41 8 4 15 18 15 34 0 15 7 41 15 56
8 16 15 40 15 53 0 13 9 40 20 60 44 81 55 124 54 218 -1 50 -6 111 -13 135
-6 23 -15 101 -21 172 -8 115 -12 132 -36 167 l-27 39 18 60 c21 70 23 116 7
132 -9 9 -12 5 -12 -17 0 -17 -5 -37 -10 -45 -7 -11 -10 -8 -10 16 0 23 -6 34
-26 43 -20 9 -24 14 -15 25 6 7 9 21 5 30 -9 23 5 20 34 -6 l23 -23 -11 30
c-24 65 -35 85 -49 85 -11 0 -11 3 -1 15 17 20 17 20 64 -18z m-320 -654 c3
-10 31 -56 61 -103 30 -47 55 -91 55 -97 0 -7 6 -13 14 -13 24 0 29 -19 12
-54 -13 -28 -23 -34 -72 -45 -47 -11 -144 -8 -144 3 0 2 10 25 22 52 17 38 23
75 26 162 4 105 13 136 26 95z"/>
<path d="M3688 1883 c6 -2 18 -2 25 0 6 3 1 5 -13 5 -14 0 -19 -2 -12 -5z"/>
<path d="M3768 1883 c6 -2 18 -2 25 0 6 3 1 5 -13 5 -14 0 -19 -2 -12 -5z"/>
<path d="M6328 1883 c6 -2 18 -2 25 0 6 3 1 5 -13 5 -14 0 -19 -2 -12 -5z"/>
<path d="M6408 1883 c7 -3 16 -2 19 1 4 3 -2 6 -13 5 -11 0 -14 -3 -6 -6z"/>
<path d="M5454 1725 c0 -88 2 -123 3 -77 2 46 2 118 0 160 -1 42 -3 5 -3 -83z"/>
<path d="M5570 1608 c-3 -130 -2 -234 3 -229 4 4 6 111 5 237 l-3 229 -5 -237z"/>
<path d="M5667 1778 c2 -5 33 -8 68 -8 60 0 64 -1 68 -25 4 -23 4 -23 3 2 -1
27 -3 28 -73 33 -39 3 -69 2 -66 -2z"/>
<path d="M5958 1773 c18 -2 45 -2 60 0 15 2 0 4 -33 4 -33 0 -45 -2 -27 -4z"/>
<path d="M6631 1674 c0 -11 3 -14 6 -6 3 7 2 16 -1 19 -3 4 -6 -2 -5 -13z"/>
<path d="M5244 1505 c0 -77 2 -107 3 -67 2 40 2 103 0 140 -2 37 -3 4 -3 -73z"/>
<path d="M5803 1555 c0 -44 2 -61 4 -37 2 23 2 59 0 80 -2 20 -4 1 -4 -43z"/>
<path d="M6241 1614 c0 -11 3 -14 6 -6 3 7 2 16 -1 19 -3 4 -6 -2 -5 -13z"/>
<path d="M4039 1276 c-31 -6 -68 -20 -83 -29 l-26 -17 0 -374 c0 -342 2 -376
18 -396 20 -25 80 -36 146 -26 l46 7 0 140 0 139 48 0 47 0 74 -115 c89 -140
126 -175 182 -175 51 0 95 23 114 59 14 29 14 30 -75 146 -50 65 -90 120 -90
124 1 3 17 18 38 32 116 80 145 253 62 374 -59 86 -167 126 -340 124 -58 0
-130 -6 -161 -13z m265 -170 c18 -8 41 -24 50 -37 20 -30 21 -102 0 -134 -21
-33 -84 -55 -154 -55 l-60 0 0 120 0 120 65 0 c36 0 81 -6 99 -14z"/>
<path d="M6107 1272 c-37 -10 -73 -24 -80 -31 -9 -9 -12 -104 -12 -386 0 -367
0 -375 21 -395 25 -25 84 -35 148 -26 l46 7 0 140 0 139 45 0 45 0 86 -130
c90 -138 115 -160 179 -160 55 0 114 41 115 80 0 14 -70 113 -147 206 l-33 41
37 29 c85 64 113 119 113 224 0 93 -21 141 -83 196 -68 60 -127 77 -282 81
-102 2 -145 -1 -198 -15z m289 -168 c63 -30 84 -116 42 -169 -30 -38 -76 -55
-153 -55 l-65 0 0 113 c0 63 3 117 7 120 13 14 135 7 169 -9z"/>
<path d="M3023 1274 c-17 -7 -19 -745 -2 -792 12 -35 49 -52 113 -52 91 0 86
-9 86 176 l0 164 150 0 150 0 0 -129 c0 -150 9 -185 52 -200 35 -12 90 -14
137 -5 l31 7 0 371 c0 216 -4 386 -10 407 -13 45 -42 59 -120 59 -95 0 -90 11
-90 -176 l0 -165 -147 3 -148 3 -5 152 c-3 105 -9 156 -18 165 -13 13 -155 23
-179 12z"/>
<path d="M4762 1271 c-10 -6 -12 -86 -10 -399 3 -382 3 -392 24 -412 25 -25
84 -35 149 -26 l46 7 -3 401 -3 400 -24 19 c-18 15 -39 19 -95 19 -39 0 -77
-4 -84 -9z"/>
<path d="M5390 1268 c-19 -5 -40 -15 -47 -21 -18 -18 -203 -552 -238 -686 -17
-67 -12 -88 27 -115 23 -17 133 -22 154 -8 6 4 22 45 36 92 l24 85 136 3 136
3 27 -81 c16 -49 35 -86 48 -95 41 -29 170 -15 183 19 6 15 -112 423 -185 639
-44 132 -57 152 -110 167 -45 12 -144 11 -191 -2z m148 -320 c23 -79 42 -146
42 -150 0 -5 -43 -8 -95 -8 -69 0 -95 3 -95 13 0 18 94 287 100 287 3 0 25
-64 48 -142z"/>
<path d="M371 1245 c-148 -42 -221 -150 -192 -285 22 -103 75 -145 260 -209
61 -21 120 -46 131 -56 31 -28 26 -78 -11 -109 -27 -23 -39 -26 -108 -26 -70
0 -86 4 -150 36 -79 39 -88 38 -118 -19 -35 -68 18 -142 125 -174 87 -26 249
-22 326 7 110 42 175 126 176 225 0 144 -60 207 -275 284 -110 40 -145 62
-145 90 0 58 88 90 196 72 35 -7 81 -19 100 -29 36 -17 36 -17 60 11 51 60 17
140 -74 172 -67 24 -233 29 -301 10z"/>
<path d="M973 1243 l-23 -4 0 -378 c0 -390 4 -432 40 -451 20 -11 139 -14 164
-4 14 5 16 30 16 170 l0 164 145 0 145 0 0 -122 c0 -146 11 -195 46 -208 31
-12 144 -13 162 -1 10 6 12 87 10 398 -3 367 -4 392 -22 412 -24 26 -71 35
-141 26 l-55 -6 0 -165 0 -164 -144 0 -144 0 -4 145 c-3 134 -5 146 -25 167
-18 17 -36 22 -85 24 -35 1 -73 0 -85 -3z"/>
</g>
</svg>
